<?xml version="1.0" encoding="UTF-8" standalone="no"?>
<!DOCTYPE svg PUBLIC "-//W3C//DTD SVG 1.1//EN" "http://www.w3.org/Graphics/SVG/1.1/DTD/svg11.dtd">
<!-- Generated by graphviz version 2.40.1 (20161225.0304)
 -->
<!-- Title: packages Pages: 1 -->
<svg width="1555pt" height="332pt" viewBox="0.00 0.00 1555.48 332.00" xmlns="http://www.w3.org/2000/svg" xmlns:xlink="http://www.w3.org/1999/xlink">
<g id="graph0" class="graph" transform="scale(1 1) rotate(0) translate(4 328)">
<title>packages</title>
<polygon fill="#ffffff" stroke="transparent" points="-4,4 -4,-328 1551.4767,-328 1551.4767,4 -4,4"/>
<!-- pyfinder.clients -->
<g id="node1" class="node">
<title>pyfinder.clients</title>
<polygon fill="none" stroke="#000000" points="570.5223,-36 466.5761,-36 466.5761,0 570.5223,0 570.5223,-36"/>
<text text-anchor="middle" x="518.5492" y="-13.8" font-family="Times,serif" font-size="14.00" fill="#000000">pyfinder.clients</text>
</g>
<!-- pyfinder.clients.emsc_client -->
<g id="node3" class="node">
<title>pyfinder.clients.emsc_client</title>
<polygon fill="none" stroke="#000000" points="794.3867,-108 620.7117,-108 620.7117,-72 794.3867,-72 794.3867,-108"/>
<text text-anchor="middle" x="707.5492" y="-85.8" font-family="Times,serif" font-size="14.00" fill="#000000">pyfinder.clients.emsc_client</text>
</g>
<!-- pyfinder.clients&#45;&gt;pyfinder.clients.emsc_client -->
<g id="edge1" class="edge">
<title>pyfinder.clients-&gt;pyfinder.clients.emsc_client</title>
<path fill="none" stroke="#000000" d="M566.2419,-36.1686C591.8565,-45.9266 623.6094,-58.023 650.5232,-68.2758"/>
<polygon fill="#000000" stroke="#000000" points="660.1995,-71.962 649.2526,-72.6072 655.527,-70.182 650.8546,-68.402 650.8546,-68.402 650.8546,-68.402 655.527,-70.182 652.4566,-64.1968 660.1995,-71.962 660.1995,-71.962"/>
</g>
<!-- pyfinder.clients.esm_client -->
<g id="node4" class="node">
<title>pyfinder.clients.esm_client</title>
<polygon fill="none" stroke="#000000" points="602.1724,-108 434.926,-108 434.926,-72 602.1724,-72 602.1724,-108"/>
<text text-anchor="middle" x="518.5492" y="-85.8" font-family="Times,serif" font-size="14.00" fill="#000000">pyfinder.clients.esm_client</text>
</g>
<!-- pyfinder.clients&#45;&gt;pyfinder.clients.esm_client -->
<g id="edge2" class="edge">
<title>pyfinder.clients-&gt;pyfinder.clients.esm_client</title>
<path fill="none" stroke="#000000" d="M518.5492,-36.1686C518.5492,-43.869 518.5492,-53.0257 518.5492,-61.5834"/>
<polygon fill="#000000" stroke="#000000" points="518.5492,-71.5867 514.0493,-61.5867 518.5492,-66.5867 518.5493,-61.5867 518.5493,-61.5867 518.5493,-61.5867 518.5492,-66.5867 523.0493,-61.5868 518.5492,-71.5867 518.5492,-71.5867"/>
</g>
<!-- pyfinder.clients.rrsm_client -->
<g id="node5" class="node">
<title>pyfinder.clients.rrsm_client</title>
<polygon fill="none" stroke="#000000" points="416.7788,-108 246.3196,-108 246.3196,-72 416.7788,-72 416.7788,-108"/>
<text text-anchor="middle" x="331.5492" y="-85.8" font-family="Times,serif" font-size="14.00" fill="#000000">pyfinder.clients.rrsm_client</text>
</g>
<!-- pyfinder.clients&#45;&gt;pyfinder.clients.rrsm_client -->
<g id="edge3" class="edge">
<title>pyfinder.clients-&gt;pyfinder.clients.rrsm_client</title>
<path fill="none" stroke="#000000" d="M471.3612,-36.1686C446.0176,-45.9266 414.6007,-58.023 387.9718,-68.2758"/>
<polygon fill="#000000" stroke="#000000" points="378.3979,-71.962 386.1131,-64.1693 383.064,-70.1654 387.73,-68.3688 387.73,-68.3688 387.73,-68.3688 383.064,-70.1654 389.347,-72.5683 378.3979,-71.962 378.3979,-71.962"/>
</g>
<!-- pyfinder.clients.base_client -->
<g id="node2" class="node">
<title>pyfinder.clients.base_client</title>
<polygon fill="none" stroke="#000000" points="424.496,-180 254.6024,-180 254.6024,-144 424.496,-144 424.496,-180"/>
<text text-anchor="middle" x="339.5492" y="-157.8" font-family="Times,serif" font-size="14.00" fill="#000000">pyfinder.clients.base_client</text>
</g>
<!-- pyfinder.clients.emsc_client&#45;&gt;pyfinder.clients.base_client -->
<g id="edge4" class="edge">
<title>pyfinder.clients.emsc_client-&gt;pyfinder.clients.base_client</title>
<path fill="none" stroke="#000000" d="M620.3383,-107.063C564.4976,-117.9884 492.0304,-132.1667 434.7035,-143.3829"/>
<polygon fill="#000000" stroke="#000000" points="424.5481,-145.3698 433.498,-139.0333 429.4551,-144.4097 434.362,-143.4496 434.362,-143.4496 434.362,-143.4496 429.4551,-144.4097 435.2261,-147.8659 424.5481,-145.3698 424.5481,-145.3698"/>
</g>
<!-- pyfinder.clients.services -->
<g id="node6" class="node">
<title>pyfinder.clients.services</title>
<polygon fill="none" stroke="#000000" points="594.6054,-180 442.493,-180 442.493,-144 594.6054,-144 594.6054,-180"/>
<text text-anchor="middle" x="518.5492" y="-157.8" font-family="Times,serif" font-size="14.00" fill="#000000">pyfinder.clients.services</text>
</g>
<!-- pyfinder.clients.emsc_client&#45;&gt;pyfinder.clients.services -->
<g id="edge5" class="edge">
<title>pyfinder.clients.emsc_client-&gt;pyfinder.clients.services</title>
<path fill="none" stroke="#000000" d="M659.8565,-108.1686C634.2419,-117.9266 602.489,-130.023 575.5752,-140.2758"/>
<polygon fill="#000000" stroke="#000000" points="565.8989,-143.962 573.6418,-136.1968 570.5714,-142.182 575.2438,-140.402 575.2438,-140.402 575.2438,-140.402 570.5714,-142.182 576.8458,-144.6072 565.8989,-143.962 565.8989,-143.962"/>
</g>
<!-- pyfinder.clients.services.feltreport_data -->
<g id="node16" class="node">
<title>pyfinder.clients.services.feltreport_data</title>
<polygon fill="none" stroke="#000000" points="1287.508,-180 1049.5904,-180 1049.5904,-144 1287.508,-144 1287.508,-180"/>
<text text-anchor="middle" x="1168.5492" y="-157.8" font-family="Times,serif" font-size="14.00" fill="#000000">pyfinder.clients.services.feltreport_data</text>
</g>
<!-- pyfinder.clients.emsc_client&#45;&gt;pyfinder.clients.services.feltreport_data -->
<g id="edge6" class="edge">
<title>pyfinder.clients.emsc_client-&gt;pyfinder.clients.services.feltreport_data</title>
<path fill="none" stroke="#000000" d="M794.5306,-103.5849C864.7188,-114.5471 964.3945,-130.1147 1043.1996,-142.4226"/>
<polygon fill="#000000" stroke="#000000" points="1053.1926,-143.9833 1042.6179,-146.8863 1048.2525,-143.2117 1043.3124,-142.4402 1043.3124,-142.4402 1043.3124,-142.4402 1048.2525,-143.2117 1044.0068,-137.994 1053.1926,-143.9833 1053.1926,-143.9833"/>
</g>
<!-- pyfinder.clients.esm_client&#45;&gt;pyfinder.clients.base_client -->
<g id="edge7" class="edge">
<title>pyfinder.clients.esm_client-&gt;pyfinder.clients.base_client</title>
<path fill="none" stroke="#000000" d="M473.3799,-108.1686C449.2269,-117.8838 419.3114,-129.9169 393.8936,-140.1408"/>
<polygon fill="#000000" stroke="#000000" points="384.3936,-143.962 391.9919,-136.0553 389.0325,-142.0961 393.6713,-140.2302 393.6713,-140.2302 393.6713,-140.2302 389.0325,-142.0961 395.3506,-144.4051 384.3936,-143.962 384.3936,-143.962"/>
</g>
<!-- pyfinder.clients.esm_client&#45;&gt;pyfinder.clients.services -->
<g id="edge8" class="edge">
<title>pyfinder.clients.esm_client-&gt;pyfinder.clients.services</title>
<path fill="none" stroke="#000000" d="M518.5492,-108.1686C518.5492,-115.869 518.5492,-125.0257 518.5492,-133.5834"/>
<polygon fill="#000000" stroke="#000000" points="518.5492,-143.5867 514.0493,-133.5867 518.5492,-138.5867 518.5493,-133.5867 518.5493,-133.5867 518.5493,-133.5867 518.5492,-138.5867 523.0493,-133.5868 518.5492,-143.5867 518.5492,-143.5867"/>
</g>
<!-- pyfinder.clients.rrsm_client&#45;&gt;pyfinder.clients.base_client -->
<g id="edge9" class="edge">
<title>pyfinder.clients.rrsm_client-&gt;pyfinder.clients.base_client</title>
<path fill="none" stroke="#000000" d="M333.5679,-108.1686C334.4235,-115.869 335.4409,-125.0257 336.3918,-133.5834"/>
<polygon fill="#000000" stroke="#000000" points="337.5033,-143.5867 331.9264,-134.1449 336.9511,-138.6173 336.3989,-133.6479 336.3989,-133.6479 336.3989,-133.6479 336.9511,-138.6173 340.8714,-133.1509 337.5033,-143.5867 337.5033,-143.5867"/>
</g>
<!-- pyfinder.clients.rrsm_client&#45;&gt;pyfinder.clients.services -->
<g id="edge10" class="edge">
<title>pyfinder.clients.rrsm_client-&gt;pyfinder.clients.services</title>
<path fill="none" stroke="#000000" d="M378.7372,-108.1686C404.0808,-117.9266 435.4977,-130.023 462.1266,-140.2758"/>
<polygon fill="#000000" stroke="#000000" points="471.7005,-143.962 460.7514,-144.5683 467.0344,-142.1654 462.3684,-140.3688 462.3684,-140.3688 462.3684,-140.3688 467.0344,-142.1654 463.9853,-136.1693 471.7005,-143.962 471.7005,-143.962"/>
</g>
<!-- pyfinder.clients.services.basewebservice -->
<g id="node9" class="node">
<title>pyfinder.clients.services.basewebservice</title>
<polygon fill="none" stroke="#000000" points="533.4403,-252 289.6581,-252 289.6581,-216 533.4403,-216 533.4403,-252"/>
<text text-anchor="middle" x="411.5492" y="-229.8" font-family="Times,serif" font-size="14.00" fill="#000000">pyfinder.clients.services.basewebservice</text>
</g>
<!-- pyfinder.clients.services&#45;&gt;pyfinder.clients.services.basewebservice -->
<g id="edge11" class="edge">
<title>pyfinder.clients.services-&gt;pyfinder.clients.services.basewebservice</title>
<path fill="none" stroke="#000000" d="M491.5486,-180.1686C478.1161,-189.2073 461.7019,-200.2524 447.2453,-209.9802"/>
<polygon fill="#000000" stroke="#000000" points="438.5412,-215.8372 444.3255,-206.5209 442.6895,-213.0458 446.8378,-210.2544 446.8378,-210.2544 446.8378,-210.2544 442.6895,-213.0458 449.35,-213.9879 438.5412,-215.8372 438.5412,-215.8372"/>
</g>
<!-- pyfinder.clients.services.emsc.feltreport_ws -->
<g id="node12" class="node">
<title>pyfinder.clients.services.emsc.feltreport_ws</title>
<polygon fill="none" stroke="#000000" points="272.0042,-252 9.0942,-252 9.0942,-216 272.0042,-216 272.0042,-252"/>
<text text-anchor="middle" x="140.5492" y="-229.8" font-family="Times,serif" font-size="14.00" fill="#000000">pyfinder.clients.services.emsc.feltreport_ws</text>
</g>
<!-- pyfinder.clients.services&#45;&gt;pyfinder.clients.services.emsc.feltreport_ws -->
<g id="edge12" class="edge">
<title>pyfinder.clients.services-&gt;pyfinder.clients.services.emsc.feltreport_ws</title>
<path fill="none" stroke="#000000" d="M442.1131,-178.286C439.2229,-178.8702 436.3606,-179.4433 433.5492,-180 373.7214,-191.8457 306.8478,-204.2351 252.1109,-214.1544"/>
<polygon fill="#000000" stroke="#000000" points="242.036,-215.9771 251.0751,-209.7687 246.9561,-215.0869 251.8762,-214.1968 251.8762,-214.1968 251.8762,-214.1968 246.9561,-215.0869 252.6774,-218.6249 242.036,-215.9771 242.036,-215.9771"/>
</g>
<!-- pyfinder.clients.services.esm.shakemap_ws -->
<g id="node15" class="node">
<title>pyfinder.clients.services.esm.shakemap_ws</title>
<polygon fill="none" stroke="#000000" points="811.6854,-252 551.413,-252 551.413,-216 811.6854,-216 811.6854,-252"/>
<text text-anchor="middle" x="681.5492" y="-229.8" font-family="Times,serif" font-size="14.00" fill="#000000">pyfinder.clients.services.esm.shakemap_ws</text>
</g>
<!-- pyfinder.clients.services&#45;&gt;pyfinder.clients.services.esm.shakemap_ws -->
<g id="edge13" class="edge">
<title>pyfinder.clients.services-&gt;pyfinder.clients.services.esm.shakemap_ws</title>
<path fill="none" stroke="#000000" d="M559.681,-180.1686C581.4813,-189.7982 608.437,-201.705 631.4496,-211.8701"/>
<polygon fill="#000000" stroke="#000000" points="640.7132,-215.962 629.7476,-216.0377 636.1395,-213.9417 631.5658,-211.9214 631.5658,-211.9214 631.5658,-211.9214 636.1395,-213.9417 633.3841,-207.8051 640.7132,-215.962 640.7132,-215.962"/>
</g>
<!-- pyfinder.clients.services.rrsm.shakemap_ws -->
<g id="node20" class="node">
<title>pyfinder.clients.services.rrsm.shakemap_ws</title>
<polygon fill="none" stroke="#000000" points="1093.2921,-252 829.8063,-252 829.8063,-216 1093.2921,-216 1093.2921,-252"/>
<text text-anchor="middle" x="961.5492" y="-229.8" font-family="Times,serif" font-size="14.00" fill="#000000">pyfinder.clients.services.rrsm.shakemap_ws</text>
</g>
<!-- pyfinder.clients.services&#45;&gt;pyfinder.clients.services.rrsm.shakemap_ws -->
<g id="edge14" class="edge">
<title>pyfinder.clients.services-&gt;pyfinder.clients.services.rrsm.shakemap_ws</title>
<path fill="none" stroke="#000000" d="M594.963,-178.4038C597.8594,-178.955 600.7291,-179.4892 603.5492,-180 674.5857,-192.8674 753.9415,-205.0584 819.8532,-214.5898"/>
<polygon fill="#000000" stroke="#000000" points="829.8946,-216.0364 819.3551,-219.0644 824.9457,-215.3234 819.9968,-214.6104 819.9968,-214.6104 819.9968,-214.6104 824.9457,-215.3234 820.6385,-210.1564 829.8946,-216.0364 829.8946,-216.0364"/>
</g>
<!-- pyfinder.clients.services.basedatastructure -->
<g id="node7" class="node">
<title>pyfinder.clients.services.basedatastructure</title>
<polygon fill="none" stroke="#000000" points="1468.7753,-252 1216.3231,-252 1216.3231,-216 1468.7753,-216 1468.7753,-252"/>
<text text-anchor="middle" x="1342.5492" y="-229.8" font-family="Times,serif" font-size="14.00" fill="#000000">pyfinder.clients.services.basedatastructure</text>
</g>
<!-- pyfinder.clients.services.baseparser -->
<g id="node8" class="node">
<title>pyfinder.clients.services.baseparser</title>
<polygon fill="none" stroke="#000000" points="802.6745,-36 588.4239,-36 588.4239,0 802.6745,0 802.6745,-36"/>
<text text-anchor="middle" x="695.5492" y="-13.8" font-family="Times,serif" font-size="14.00" fill="#000000">pyfinder.clients.services.baseparser</text>
</g>
<!-- pyfinder.clients.services.emsc -->
<g id="node10" class="node">
<title>pyfinder.clients.services.emsc</title>
<polygon fill="none" stroke="#000000" points="1004.8701,-36 820.2283,-36 820.2283,0 1004.8701,0 1004.8701,-36"/>
<text text-anchor="middle" x="912.5492" y="-13.8" font-family="Times,serif" font-size="14.00" fill="#000000">pyfinder.clients.services.emsc</text>
</g>
<!-- pyfinder.clients.services.emsc.feltreport_parser -->
<g id="node11" class="node">
<title>pyfinder.clients.services.emsc.feltreport_parser</title>
<polygon fill="none" stroke="#000000" points="281.1476,-324 -.0492,-324 -.0492,-288 281.1476,-288 281.1476,-324"/>
<text text-anchor="middle" x="140.5492" y="-301.8" font-family="Times,serif" font-size="14.00" fill="#000000">pyfinder.clients.services.emsc.feltreport_parser</text>
</g>
<!-- pyfinder.clients.services.emsc.feltreport_ws&#45;&gt;pyfinder.clients.services.emsc.feltreport_parser -->
<g id="edge15" class="edge">
<title>pyfinder.clients.services.emsc.feltreport_ws-&gt;pyfinder.clients.services.emsc.feltreport_parser</title>
<path fill="none" stroke="#000000" d="M140.5492,-252.1686C140.5492,-259.869 140.5492,-269.0257 140.5492,-277.5834"/>
<polygon fill="#000000" stroke="#000000" points="140.5492,-287.5867 136.0493,-277.5867 140.5492,-282.5867 140.5493,-277.5867 140.5493,-277.5867 140.5493,-277.5867 140.5492,-282.5867 145.0493,-277.5868 140.5492,-287.5867 140.5492,-287.5867"/>
</g>
<!-- pyfinder.clients.services.esm -->
<g id="node13" class="node">
<title>pyfinder.clients.services.esm</title>
<polygon fill="none" stroke="#000000" points="790.6552,-180 612.4432,-180 612.4432,-144 790.6552,-144 790.6552,-180"/>
<text text-anchor="middle" x="701.5492" y="-157.8" font-family="Times,serif" font-size="14.00" fill="#000000">pyfinder.clients.services.esm</text>
</g>
<!-- pyfinder.clients.services.esm&#45;&gt;pyfinder.clients.services.esm.shakemap_ws -->
<g id="edge16" class="edge">
<title>pyfinder.clients.services.esm-&gt;pyfinder.clients.services.esm.shakemap_ws</title>
<path fill="none" stroke="#000000" d="M696.5024,-180.1686C694.3398,-187.9537 691.7639,-197.2271 689.3644,-205.8653"/>
<polygon fill="#000000" stroke="#000000" points="686.664,-215.5867 685.0047,-204.7471 688.0023,-210.7691 689.3405,-205.9516 689.3405,-205.9516 689.3405,-205.9516 688.0023,-210.7691 693.6763,-207.156 686.664,-215.5867 686.664,-215.5867"/>
</g>
<!-- pyfinder.clients.services.esm.shakemap_parser -->
<g id="node14" class="node">
<title>pyfinder.clients.services.esm.shakemap_parser</title>
<polygon fill="none" stroke="#000000" points="811.8293,-324 533.2691,-324 533.2691,-288 811.8293,-288 811.8293,-324"/>
<text text-anchor="middle" x="672.5492" y="-301.8" font-family="Times,serif" font-size="14.00" fill="#000000">pyfinder.clients.services.esm.shakemap_parser</text>
</g>
<!-- pyfinder.clients.services.esm.shakemap_ws&#45;&gt;pyfinder.clients.services.esm.shakemap_parser -->
<g id="edge17" class="edge">
<title>pyfinder.clients.services.esm.shakemap_ws-&gt;pyfinder.clients.services.esm.shakemap_parser</title>
<path fill="none" stroke="#000000" d="M679.2781,-252.1686C678.3156,-259.869 677.171,-269.0257 676.1013,-277.5834"/>
<polygon fill="#000000" stroke="#000000" points="674.8509,-287.5867 671.626,-277.1058 675.4711,-282.6253 676.0913,-277.664 676.0913,-277.664 676.0913,-277.664 675.4711,-282.6253 680.5565,-278.2221 674.8509,-287.5867 674.8509,-287.5867"/>
</g>
<!-- pyfinder.clients.services.feltreport_data&#45;&gt;pyfinder.clients.services.basedatastructure -->
<g id="edge18" class="edge">
<title>pyfinder.clients.services.feltreport_data-&gt;pyfinder.clients.services.basedatastructure</title>
<path fill="none" stroke="#000000" d="M1212.4567,-180.1686C1235.8316,-189.841 1264.7589,-201.8109 1289.396,-212.0056"/>
<polygon fill="#000000" stroke="#000000" points="1298.9574,-215.962 1287.9966,-216.2965 1294.3373,-214.0502 1289.7172,-212.1384 1289.7172,-212.1384 1289.7172,-212.1384 1294.3373,-214.0502 1291.4378,-207.9804 1298.9574,-215.962 1298.9574,-215.962"/>
</g>
<!-- pyfinder.clients.services.http -->
<g id="node17" class="node">
<title>pyfinder.clients.services.http</title>
<polygon fill="none" stroke="#000000" points="1200.3869,-36 1022.7115,-36 1022.7115,0 1200.3869,0 1200.3869,-36"/>
<text text-anchor="middle" x="1111.5492" y="-13.8" font-family="Times,serif" font-size="14.00" fill="#000000">pyfinder.clients.services.http</text>
</g>
<!-- pyfinder.clients.services.rrsm -->
<g id="node18" class="node">
<title>pyfinder.clients.services.rrsm</title>
<polygon fill="none" stroke="#000000" points="1031.2619,-180 849.8365,-180 849.8365,-144 1031.2619,-144 1031.2619,-180"/>
<text text-anchor="middle" x="940.5492" y="-157.8" font-family="Times,serif" font-size="14.00" fill="#000000">pyfinder.clients.services.rrsm</text>
</g>
<!-- pyfinder.clients.services.rrsm&#45;&gt;pyfinder.clients.services.rrsm.shakemap_ws -->
<g id="edge19" class="edge">
<title>pyfinder.clients.services.rrsm-&gt;pyfinder.clients.services.rrsm.shakemap_ws</title>
<path fill="none" stroke="#000000" d="M945.8484,-180.1686C948.119,-187.9537 950.8238,-197.2271 953.3432,-205.8653"/>
<polygon fill="#000000" stroke="#000000" points="956.1787,-215.5867 949.0586,-207.2468 954.7786,-210.7867 953.3786,-205.9867 953.3786,-205.9867 953.3786,-205.9867 954.7786,-210.7867 957.6986,-204.7267 956.1787,-215.5867 956.1787,-215.5867"/>
</g>
<!-- pyfinder.clients.services.rrsm.shakemap_parser -->
<g id="node19" class="node">
<title>pyfinder.clients.services.rrsm.shakemap_parser</title>
<polygon fill="none" stroke="#000000" points="1111.4358,-324 829.6626,-324 829.6626,-288 1111.4358,-288 1111.4358,-324"/>
<text text-anchor="middle" x="970.5492" y="-301.8" font-family="Times,serif" font-size="14.00" fill="#000000">pyfinder.clients.services.rrsm.shakemap_parser</text>
</g>
<!-- pyfinder.clients.services.rrsm.shakemap_ws&#45;&gt;pyfinder.clients.services.rrsm.shakemap_parser -->
<g id="edge20" class="edge">
<title>pyfinder.clients.services.rrsm.shakemap_ws-&gt;pyfinder.clients.services.rrsm.shakemap_parser</title>
<path fill="none" stroke="#000000" d="M963.8203,-252.1686C964.7828,-259.869 965.9274,-269.0257 966.9971,-277.5834"/>
<polygon fill="#000000" stroke="#000000" points="968.2475,-287.5867 962.5419,-278.2221 967.6273,-282.6253 967.0071,-277.664 967.0071,-277.664 967.0071,-277.664 967.6273,-282.6253 971.4724,-277.1058 968.2475,-287.5867 968.2475,-287.5867"/>
</g>
<!-- pyfinder.clients.services.shakemap_data -->
<g id="node21" class="node">
<title>pyfinder.clients.services.shakemap_data</title>
<polygon fill="none" stroke="#000000" points="1547.4042,-180 1305.6942,-180 1305.6942,-144 1547.4042,-144 1547.4042,-180"/>
<text text-anchor="middle" x="1426.5492" y="-157.8" font-family="Times,serif" font-size="14.00" fill="#000000">pyfinder.clients.services.shakemap_data</text>
</g>
<!-- pyfinder.clients.services.shakemap_data&#45;&gt;pyfinder.clients.services.basedatastructure -->
<g id="edge21" class="edge">
<title>pyfinder.clients.services.shakemap_data-&gt;pyfinder.clients.services.basedatastructure</title>
<path fill="none" stroke="#000000" d="M1405.3525,-180.1686C1395.1058,-188.9515 1382.6489,-199.6288 1371.5395,-209.1511"/>
<polygon fill="#000000" stroke="#000000" points="1363.7392,-215.8372 1368.4032,-205.9126 1367.5355,-212.5832 1371.3318,-209.3292 1371.3318,-209.3292 1371.3318,-209.3292 1367.5355,-212.5832 1374.2603,-212.7459 1363.7392,-215.8372 1363.7392,-215.8372"/>
</g>
</g>
</svg>