<?xml version="1.0" encoding="UTF-8" standalone="no"?>
<!DOCTYPE svg PUBLIC "-//W3C//DTD SVG 1.1//EN" "http://www.w3.org/Graphics/SVG/1.1/DTD/svg11.dtd">
<!-- Generated by graphviz version 2.40.1 (20161225.0304)
 -->
<!-- Title: packages Pages: 1 -->
<svg width="1764pt" height="476pt" viewBox="0.00 0.00 1763.67 476.00" xmlns="http://www.w3.org/2000/svg" xmlns:xlink="http://www.w3.org/1999/xlink">
<g id="graph0" class="graph" transform="scale(1 1) rotate(0) translate(4 472)">
<title>packages</title>
<polygon fill="#ffffff" stroke="transparent" points="-4,4 -4,-472 1759.6748,-472 1759.6748,4 -4,4"/>
<!-- pyfinder.clients -->
<g id="node1" class="node">
<title>pyfinder.clients</title>
<polygon fill="none" stroke="#000000" points="898.6685,-36 794.7223,-36 794.7223,0 898.6685,0 898.6685,-36"/>
<text text-anchor="middle" x="846.6954" y="-13.8" font-family="Times,serif" font-size="14.00" fill="#000000">pyfinder.clients</text>
</g>
<!-- pyfinder.clients.emsc_client -->
<g id="node3" class="node">
<title>pyfinder.clients.emsc_client</title>
<polygon fill="none" stroke="#000000" points="1122.5329,-108 948.8579,-108 948.8579,-72 1122.5329,-72 1122.5329,-108"/>
<text text-anchor="middle" x="1035.6954" y="-85.8" font-family="Times,serif" font-size="14.00" fill="#000000">pyfinder.clients.emsc_client</text>
</g>
<!-- pyfinder.clients&#45;&gt;pyfinder.clients.emsc_client -->
<g id="edge1" class="edge">
<title>pyfinder.clients-&gt;pyfinder.clients.emsc_client</title>
<path fill="none" stroke="#000000" d="M894.3881,-36.1686C920.0027,-45.9266 951.7556,-58.023 978.6694,-68.2758"/>
<polygon fill="#000000" stroke="#000000" points="988.3457,-71.962 977.3988,-72.6072 983.6732,-70.182 979.0008,-68.402 979.0008,-68.402 979.0008,-68.402 983.6732,-70.182 980.6028,-64.1968 988.3457,-71.962 988.3457,-71.962"/>
</g>
<!-- pyfinder.clients.esm_client -->
<g id="node4" class="node">
<title>pyfinder.clients.esm_client</title>
<polygon fill="none" stroke="#000000" points="930.3186,-108 763.0722,-108 763.0722,-72 930.3186,-72 930.3186,-108"/>
<text text-anchor="middle" x="846.6954" y="-85.8" font-family="Times,serif" font-size="14.00" fill="#000000">pyfinder.clients.esm_client</text>
</g>
<!-- pyfinder.clients&#45;&gt;pyfinder.clients.esm_client -->
<g id="edge2" class="edge">
<title>pyfinder.clients-&gt;pyfinder.clients.esm_client</title>
<path fill="none" stroke="#000000" d="M846.6954,-36.1686C846.6954,-43.869 846.6954,-53.0257 846.6954,-61.5834"/>
<polygon fill="#000000" stroke="#000000" points="846.6954,-71.5867 842.1955,-61.5867 846.6954,-66.5867 846.6955,-61.5867 846.6955,-61.5867 846.6955,-61.5867 846.6954,-66.5867 851.1955,-61.5868 846.6954,-71.5867 846.6954,-71.5867"/>
</g>
<!-- pyfinder.clients.rrsm_client -->
<g id="node5" class="node">
<title>pyfinder.clients.rrsm_client</title>
<polygon fill="none" stroke="#000000" points="744.925,-108 574.4658,-108 574.4658,-72 744.925,-72 744.925,-108"/>
<text text-anchor="middle" x="659.6954" y="-85.8" font-family="Times,serif" font-size="14.00" fill="#000000">pyfinder.clients.rrsm_client</text>
</g>
<!-- pyfinder.clients&#45;&gt;pyfinder.clients.rrsm_client -->
<g id="edge3" class="edge">
<title>pyfinder.clients-&gt;pyfinder.clients.rrsm_client</title>
<path fill="none" stroke="#000000" d="M799.5074,-36.1686C774.1638,-45.9266 742.7469,-58.023 716.118,-68.2758"/>
<polygon fill="#000000" stroke="#000000" points="706.5441,-71.962 714.2593,-64.1693 711.2102,-70.1654 715.8762,-68.3688 715.8762,-68.3688 715.8762,-68.3688 711.2102,-70.1654 717.4932,-72.5683 706.5441,-71.962 706.5441,-71.962"/>
</g>
<!-- pyfinder.clients.base_client -->
<g id="node2" class="node">
<title>pyfinder.clients.base_client</title>
<polygon fill="none" stroke="#000000" points="931.6422,-180 761.7486,-180 761.7486,-144 931.6422,-144 931.6422,-180"/>
<text text-anchor="middle" x="846.6954" y="-157.8" font-family="Times,serif" font-size="14.00" fill="#000000">pyfinder.clients.base_client</text>
</g>
<!-- pyfinder.clients.services -->
<g id="node6" class="node">
<title>pyfinder.clients.services</title>
<polygon fill="none" stroke="#000000" points="809.7516,-252 657.6392,-252 657.6392,-216 809.7516,-216 809.7516,-252"/>
<text text-anchor="middle" x="733.6954" y="-229.8" font-family="Times,serif" font-size="14.00" fill="#000000">pyfinder.clients.services</text>
</g>
<!-- pyfinder.clients.base_client&#45;&gt;pyfinder.clients.services -->
<g id="edge4" class="edge">
<title>pyfinder.clients.base_client-&gt;pyfinder.clients.services</title>
<path fill="none" stroke="#000000" d="M818.1807,-180.1686C803.8612,-189.2926 786.333,-200.461 770.9616,-210.2551"/>
<polygon fill="#000000" stroke="#000000" points="762.2009,-215.8372 768.2164,-206.6684 766.4177,-213.1504 770.6345,-210.4635 770.6345,-210.4635 770.6345,-210.4635 766.4177,-213.1504 773.0526,-214.2586 762.2009,-215.8372 762.2009,-215.8372"/>
</g>
<!-- pyfinder.clients.services.basedatastructure -->
<g id="node7" class="node">
<title>pyfinder.clients.services.basedatastructure</title>
<polygon fill="none" stroke="#000000" points="1504.9215,-252 1252.4693,-252 1252.4693,-216 1504.9215,-216 1504.9215,-252"/>
<text text-anchor="middle" x="1378.6954" y="-229.8" font-family="Times,serif" font-size="14.00" fill="#000000">pyfinder.clients.services.basedatastructure</text>
</g>
<!-- pyfinder.clients.base_client&#45;&gt;pyfinder.clients.services.basedatastructure -->
<g id="edge5" class="edge">
<title>pyfinder.clients.base_client-&gt;pyfinder.clients.services.basedatastructure</title>
<path fill="none" stroke="#000000" d="M931.9015,-173.6361C947.4685,-175.7571 963.569,-177.9476 978.6954,-180 1066.2492,-191.8795 1164.5926,-205.1567 1241.8574,-215.573"/>
<polygon fill="#000000" stroke="#000000" points="1252.1341,-216.9583 1241.6225,-220.0819 1247.1789,-216.2903 1242.2237,-215.6223 1242.2237,-215.6223 1242.2237,-215.6223 1247.1789,-216.2903 1242.8249,-211.1626 1252.1341,-216.9583 1252.1341,-216.9583"/>
</g>
<!-- pyfinder.clients.emsc_client&#45;&gt;pyfinder.clients.base_client -->
<g id="edge6" class="edge">
<title>pyfinder.clients.emsc_client-&gt;pyfinder.clients.base_client</title>
<path fill="none" stroke="#000000" d="M988.0027,-108.1686C962.3881,-117.9266 930.6352,-130.023 903.7214,-140.2758"/>
<polygon fill="#000000" stroke="#000000" points="894.0451,-143.962 901.788,-136.1968 898.7176,-142.182 903.39,-140.402 903.39,-140.402 903.39,-140.402 898.7176,-142.182 904.992,-144.6072 894.0451,-143.962 894.0451,-143.962"/>
</g>
<!-- pyfinder.clients.emsc_client&#45;&gt;pyfinder.clients.services -->
<g id="edge7" class="edge">
<title>pyfinder.clients.emsc_client-&gt;pyfinder.clients.services</title>
<path fill="none" stroke="#000000" d="M1016.4884,-108.203C988.7523,-134.4884 940.766,-179.9608 940.6954,-180 903.733,-200.5193 858.7155,-213.4672 820.1139,-221.5201"/>
<polygon fill="#000000" stroke="#000000" points="809.9294,-223.5636 818.8487,-217.1842 814.8317,-222.58 819.734,-221.5963 819.734,-221.5963 819.734,-221.5963 814.8317,-222.58 820.6193,-226.0083 809.9294,-223.5636 809.9294,-223.5636"/>
</g>
<!-- pyfinder.clients.services.feltreport_data -->
<g id="node16" class="node">
<title>pyfinder.clients.services.feltreport_data</title>
<polygon fill="none" stroke="#000000" points="1755.6542,-180 1517.7366,-180 1517.7366,-144 1755.6542,-144 1755.6542,-180"/>
<text text-anchor="middle" x="1636.6954" y="-157.8" font-family="Times,serif" font-size="14.00" fill="#000000">pyfinder.clients.services.feltreport_data</text>
</g>
<!-- pyfinder.clients.emsc_client&#45;&gt;pyfinder.clients.services.feltreport_data -->
<g id="edge8" class="edge">
<title>pyfinder.clients.emsc_client-&gt;pyfinder.clients.services.feltreport_data</title>
<path fill="none" stroke="#000000" d="M1122.9552,-99.2739C1215.7054,-109.2881 1366.9404,-126.064 1507.3823,-143.8487"/>
<polygon fill="#000000" stroke="#000000" points="1517.4746,-145.1309 1506.9871,-148.3346 1512.5144,-144.5007 1507.5543,-143.8705 1507.5543,-143.8705 1507.5543,-143.8705 1512.5144,-144.5007 1508.1215,-139.4064 1517.4746,-145.1309 1517.4746,-145.1309"/>
</g>
<!-- pyfinder.clients.esm_client&#45;&gt;pyfinder.clients.base_client -->
<g id="edge9" class="edge">
<title>pyfinder.clients.esm_client-&gt;pyfinder.clients.base_client</title>
<path fill="none" stroke="#000000" d="M846.6954,-108.1686C846.6954,-115.869 846.6954,-125.0257 846.6954,-133.5834"/>
<polygon fill="#000000" stroke="#000000" points="846.6954,-143.5867 842.1955,-133.5867 846.6954,-138.5867 846.6955,-133.5867 846.6955,-133.5867 846.6955,-133.5867 846.6954,-138.5867 851.1955,-133.5868 846.6954,-143.5867 846.6954,-143.5867"/>
</g>
<!-- pyfinder.clients.esm_client&#45;&gt;pyfinder.clients.services -->
<g id="edge10" class="edge">
<title>pyfinder.clients.esm_client-&gt;pyfinder.clients.services</title>
<path fill="none" stroke="#000000" d="M798.3175,-108.0088C781.5393,-116.5177 764.0959,-128.3215 752.6954,-144 739.7599,-161.7896 735.2437,-186.489 733.8317,-205.5135"/>
<polygon fill="#000000" stroke="#000000" points="733.3256,-215.6908 729.3279,-205.4796 733.574,-210.697 733.8223,-205.7031 733.8223,-205.7031 733.8223,-205.7031 733.574,-210.697 738.3168,-205.9266 733.3256,-215.6908 733.3256,-215.6908"/>
</g>
<!-- pyfinder.clients.rrsm_client&#45;&gt;pyfinder.clients.base_client -->
<g id="edge11" class="edge">
<title>pyfinder.clients.rrsm_client-&gt;pyfinder.clients.base_client</title>
<path fill="none" stroke="#000000" d="M706.8834,-108.1686C732.227,-117.9266 763.6439,-130.023 790.2728,-140.2758"/>
<polygon fill="#000000" stroke="#000000" points="799.8467,-143.962 788.8976,-144.5683 795.1806,-142.1654 790.5146,-140.3688 790.5146,-140.3688 790.5146,-140.3688 795.1806,-142.1654 792.1315,-136.1693 799.8467,-143.962 799.8467,-143.962"/>
</g>
<!-- pyfinder.clients.rrsm_client&#45;&gt;pyfinder.clients.services -->
<g id="edge12" class="edge">
<title>pyfinder.clients.rrsm_client-&gt;pyfinder.clients.services</title>
<path fill="none" stroke="#000000" d="M669.0676,-108.2377C681.8561,-133.1236 704.8754,-177.9178 719.7092,-206.7835"/>
<polygon fill="#000000" stroke="#000000" points="724.3993,-215.9104 715.8262,-209.0729 722.114,-211.4632 719.8286,-207.0161 719.8286,-207.0161 719.8286,-207.0161 722.114,-211.4632 723.8311,-204.9592 724.3993,-215.9104 724.3993,-215.9104"/>
</g>
<!-- pyfinder.clients.services.basewebservice -->
<g id="node9" class="node">
<title>pyfinder.clients.services.basewebservice</title>
<polygon fill="none" stroke="#000000" points="243.5865,-324 -.1957,-324 -.1957,-288 243.5865,-288 243.5865,-324"/>
<text text-anchor="middle" x="121.6954" y="-301.8" font-family="Times,serif" font-size="14.00" fill="#000000">pyfinder.clients.services.basewebservice</text>
</g>
<!-- pyfinder.clients.services&#45;&gt;pyfinder.clients.services.basewebservice -->
<g id="edge13" class="edge">
<title>pyfinder.clients.services-&gt;pyfinder.clients.services.basewebservice</title>
<path fill="none" stroke="#000000" d="M657.4007,-241.9761C564.6155,-251.8088 402.9566,-269.3659 253.9609,-287.8576"/>
<polygon fill="#000000" stroke="#000000" points="243.7115,-289.1337 253.0789,-283.4326 248.6732,-288.5159 253.6349,-287.8981 253.6349,-287.8981 253.6349,-287.8981 248.6732,-288.5159 254.1908,-292.3636 243.7115,-289.1337 243.7115,-289.1337"/>
</g>
<!-- pyfinder.clients.services.emsc.feltreport_ws -->
<g id="node12" class="node">
<title>pyfinder.clients.services.emsc.feltreport_ws</title>
<polygon fill="none" stroke="#000000" points="524.1504,-324 261.2404,-324 261.2404,-288 524.1504,-288 524.1504,-324"/>
<text text-anchor="middle" x="392.6954" y="-301.8" font-family="Times,serif" font-size="14.00" fill="#000000">pyfinder.clients.services.emsc.feltreport_ws</text>
</g>
<!-- pyfinder.clients.services&#45;&gt;pyfinder.clients.services.emsc.feltreport_ws -->
<g id="edge14" class="edge">
<title>pyfinder.clients.services-&gt;pyfinder.clients.services.emsc.feltreport_ws</title>
<path fill="none" stroke="#000000" d="M657.5928,-250.0686C607.5151,-260.6422 541.5727,-274.5655 488.0096,-285.875"/>
<polygon fill="#000000" stroke="#000000" points="478.1588,-287.9549 487.0134,-281.486 483.051,-286.922 487.9431,-285.889 487.9431,-285.889 487.9431,-285.889 483.051,-286.922 488.8728,-290.2919 478.1588,-287.9549 478.1588,-287.9549"/>
</g>
<!-- pyfinder.clients.services.esm.shakemap_ws -->
<g id="node15" class="node">
<title>pyfinder.clients.services.esm.shakemap_ws</title>
<polygon fill="none" stroke="#000000" points="1330.8316,-324 1070.5592,-324 1070.5592,-288 1330.8316,-288 1330.8316,-324"/>
<text text-anchor="middle" x="1200.6954" y="-301.8" font-family="Times,serif" font-size="14.00" fill="#000000">pyfinder.clients.services.esm.shakemap_ws</text>
</g>
<!-- pyfinder.clients.services&#45;&gt;pyfinder.clients.services.esm.shakemap_ws -->
<g id="edge15" class="edge">
<title>pyfinder.clients.services-&gt;pyfinder.clients.services.esm.shakemap_ws</title>
<path fill="none" stroke="#000000" d="M809.7664,-245.7283C881.1184,-256.729 989.1812,-273.3897 1073.6216,-286.4083"/>
<polygon fill="#000000" stroke="#000000" points="1083.5367,-287.937 1072.9678,-290.8606 1078.5951,-287.1751 1073.6535,-286.4132 1073.6535,-286.4132 1073.6535,-286.4132 1078.5951,-287.1751 1074.3392,-281.9657 1083.5367,-287.937 1083.5367,-287.937"/>
</g>
<!-- pyfinder.clients.services.rrsm.peakmotion_ws -->
<g id="node21" class="node">
<title>pyfinder.clients.services.rrsm.peakmotion_ws</title>
<polygon fill="none" stroke="#000000" points="815.5604,-324 541.8304,-324 541.8304,-288 815.5604,-288 815.5604,-324"/>
<text text-anchor="middle" x="678.6954" y="-301.8" font-family="Times,serif" font-size="14.00" fill="#000000">pyfinder.clients.services.rrsm.peakmotion_ws</text>
</g>
<!-- pyfinder.clients.services&#45;&gt;pyfinder.clients.services.rrsm.peakmotion_ws -->
<g id="edge16" class="edge">
<title>pyfinder.clients.services-&gt;pyfinder.clients.services.rrsm.peakmotion_ws</title>
<path fill="none" stroke="#000000" d="M719.8166,-252.1686C713.4818,-260.4614 705.857,-270.443 698.9028,-279.5467"/>
<polygon fill="#000000" stroke="#000000" points="692.7611,-287.5867 695.2555,-276.9083 695.7963,-283.6134 698.8315,-279.64 698.8315,-279.64 698.8315,-279.64 695.7963,-283.6134 702.4076,-282.3717 692.7611,-287.5867 692.7611,-287.5867"/>
</g>
<!-- pyfinder.clients.services.rrsm.shakemap_ws -->
<g id="node23" class="node">
<title>pyfinder.clients.services.rrsm.shakemap_ws</title>
<polygon fill="none" stroke="#000000" points="1081.4383,-396 817.9525,-396 817.9525,-360 1081.4383,-360 1081.4383,-396"/>
<text text-anchor="middle" x="949.6954" y="-373.8" font-family="Times,serif" font-size="14.00" fill="#000000">pyfinder.clients.services.rrsm.shakemap_ws</text>
</g>
<!-- pyfinder.clients.services&#45;&gt;pyfinder.clients.services.rrsm.shakemap_ws -->
<g id="edge17" class="edge">
<title>pyfinder.clients.services-&gt;pyfinder.clients.services.rrsm.shakemap_ws</title>
<path fill="none" stroke="#000000" d="M809.7913,-237.4679C886.4063,-242.744 996.9789,-255.8494 1023.6954,-288 1033.9213,-300.3058 1030.9444,-309.7363 1023.6954,-324 1017.5515,-336.0891 1007.2911,-346.1157 996.338,-354.1126"/>
<polygon fill="#000000" stroke="#000000" points="987.8837,-359.8328 993.6443,-350.5018 992.0249,-357.0308 996.166,-354.2289 996.166,-354.2289 996.166,-354.2289 992.0249,-357.0308 998.6878,-357.956 987.8837,-359.8328 987.8837,-359.8328"/>
</g>
<!-- pyfinder.clients.services.baseparser -->
<g id="node8" class="node">
<title>pyfinder.clients.services.baseparser</title>
<polygon fill="none" stroke="#000000" points="1130.8207,-36 916.5701,-36 916.5701,0 1130.8207,0 1130.8207,-36"/>
<text text-anchor="middle" x="1023.6954" y="-13.8" font-family="Times,serif" font-size="14.00" fill="#000000">pyfinder.clients.services.baseparser</text>
</g>
<!-- pyfinder.clients.services.emsc -->
<g id="node10" class="node">
<title>pyfinder.clients.services.emsc</title>
<polygon fill="none" stroke="#000000" points="1333.0163,-36 1148.3745,-36 1148.3745,0 1333.0163,0 1333.0163,-36"/>
<text text-anchor="middle" x="1240.6954" y="-13.8" font-family="Times,serif" font-size="14.00" fill="#000000">pyfinder.clients.services.emsc</text>
</g>
<!-- pyfinder.clients.services.emsc.feltreport_parser -->
<g id="node11" class="node">
<title>pyfinder.clients.services.emsc.feltreport_parser</title>
<polygon fill="none" stroke="#000000" points="489.2938,-396 208.097,-396 208.097,-360 489.2938,-360 489.2938,-396"/>
<text text-anchor="middle" x="348.6954" y="-373.8" font-family="Times,serif" font-size="14.00" fill="#000000">pyfinder.clients.services.emsc.feltreport_parser</text>
</g>
<!-- pyfinder.clients.services.emsc.feltreport_ws&#45;&gt;pyfinder.clients.services.emsc.feltreport_parser -->
<g id="edge18" class="edge">
<title>pyfinder.clients.services.emsc.feltreport_ws-&gt;pyfinder.clients.services.emsc.feltreport_parser</title>
<path fill="none" stroke="#000000" d="M381.5923,-324.1686C376.628,-332.2921 370.6732,-342.0363 365.2026,-350.9882"/>
<polygon fill="#000000" stroke="#000000" points="359.948,-359.5867 361.3227,-348.7074 362.5552,-355.3203 365.1625,-351.0539 365.1625,-351.0539 365.1625,-351.0539 362.5552,-355.3203 369.0023,-353.4004 359.948,-359.5867 359.948,-359.5867"/>
</g>
<!-- pyfinder.clients.services.esm -->
<g id="node13" class="node">
<title>pyfinder.clients.services.esm</title>
<polygon fill="none" stroke="#000000" points="1234.8014,-252 1056.5894,-252 1056.5894,-216 1234.8014,-216 1234.8014,-252"/>
<text text-anchor="middle" x="1145.6954" y="-229.8" font-family="Times,serif" font-size="14.00" fill="#000000">pyfinder.clients.services.esm</text>
</g>
<!-- pyfinder.clients.services.esm&#45;&gt;pyfinder.clients.services.esm.shakemap_ws -->
<g id="edge19" class="edge">
<title>pyfinder.clients.services.esm-&gt;pyfinder.clients.services.esm.shakemap_ws</title>
<path fill="none" stroke="#000000" d="M1159.5742,-252.1686C1165.909,-260.4614 1173.5338,-270.443 1180.488,-279.5467"/>
<polygon fill="#000000" stroke="#000000" points="1186.6297,-287.5867 1176.9832,-282.3717 1183.5945,-283.6134 1180.5593,-279.64 1180.5593,-279.64 1180.5593,-279.64 1183.5945,-283.6134 1184.1353,-276.9083 1186.6297,-287.5867 1186.6297,-287.5867"/>
</g>
<!-- pyfinder.clients.services.esm.shakemap_parser -->
<g id="node14" class="node">
<title>pyfinder.clients.services.esm.shakemap_parser</title>
<polygon fill="none" stroke="#000000" points="1377.9755,-396 1099.4153,-396 1099.4153,-360 1377.9755,-360 1377.9755,-396"/>
<text text-anchor="middle" x="1238.6954" y="-373.8" font-family="Times,serif" font-size="14.00" fill="#000000">pyfinder.clients.services.esm.shakemap_parser</text>
</g>
<!-- pyfinder.clients.services.esm.shakemap_ws&#45;&gt;pyfinder.clients.services.esm.shakemap_parser -->
<g id="edge20" class="edge">
<title>pyfinder.clients.services.esm.shakemap_ws-&gt;pyfinder.clients.services.esm.shakemap_parser</title>
<path fill="none" stroke="#000000" d="M1210.2844,-324.1686C1214.5271,-332.2075 1219.6075,-341.8334 1224.2914,-350.7082"/>
<polygon fill="#000000" stroke="#000000" points="1228.9773,-359.5867 1220.3299,-352.8433 1226.6435,-355.1648 1224.3096,-350.7429 1224.3096,-350.7429 1224.3096,-350.7429 1226.6435,-355.1648 1228.2894,-348.6424 1228.9773,-359.5867 1228.9773,-359.5867"/>
</g>
<!-- pyfinder.clients.services.feltreport_data&#45;&gt;pyfinder.clients.services.basedatastructure -->
<g id="edge21" class="edge">
<title>pyfinder.clients.services.feltreport_data-&gt;pyfinder.clients.services.basedatastructure</title>
<path fill="none" stroke="#000000" d="M1571.9241,-180.0757C1535.8873,-190.1325 1490.8722,-202.6948 1453.3587,-213.1637"/>
<polygon fill="#000000" stroke="#000000" points="1443.4933,-215.9169 1451.9157,-208.8944 1448.3093,-214.5728 1453.1253,-213.2288 1453.1253,-213.2288 1453.1253,-213.2288 1448.3093,-214.5728 1454.3349,-217.5632 1443.4933,-215.9169 1443.4933,-215.9169"/>
</g>
<!-- pyfinder.clients.services.http -->
<g id="node17" class="node">
<title>pyfinder.clients.services.http</title>
<polygon fill="none" stroke="#000000" points="1528.5331,-36 1350.8577,-36 1350.8577,0 1528.5331,0 1528.5331,-36"/>
<text text-anchor="middle" x="1439.6954" y="-13.8" font-family="Times,serif" font-size="14.00" fill="#000000">pyfinder.clients.services.http</text>
</g>
<!-- pyfinder.clients.services.peakmotion_data -->
<g id="node18" class="node">
<title>pyfinder.clients.services.peakmotion_data</title>
<polygon fill="none" stroke="#000000" points="1239.6724,-180 987.7184,-180 987.7184,-144 1239.6724,-144 1239.6724,-180"/>
<text text-anchor="middle" x="1113.6954" y="-157.8" font-family="Times,serif" font-size="14.00" fill="#000000">pyfinder.clients.services.peakmotion_data</text>
</g>
<!-- pyfinder.clients.services.peakmotion_data&#45;&gt;pyfinder.clients.services.basedatastructure -->
<g id="edge22" class="edge">
<title>pyfinder.clients.services.peakmotion_data-&gt;pyfinder.clients.services.basedatastructure</title>
<path fill="none" stroke="#000000" d="M1180.224,-180.0757C1217.2386,-190.1325 1263.475,-202.6948 1302.0064,-213.1637"/>
<polygon fill="#000000" stroke="#000000" points="1312.1394,-215.9169 1301.3093,-217.6374 1307.3143,-214.6059 1302.4892,-213.2949 1302.4892,-213.2949 1302.4892,-213.2949 1307.3143,-214.6059 1303.6691,-208.9523 1312.1394,-215.9169 1312.1394,-215.9169"/>
</g>
<!-- pyfinder.clients.services.rrsm -->
<g id="node19" class="node">
<title>pyfinder.clients.services.rrsm</title>
<polygon fill="none" stroke="#000000" points="1014.4081,-324 832.9827,-324 832.9827,-288 1014.4081,-288 1014.4081,-324"/>
<text text-anchor="middle" x="923.6954" y="-301.8" font-family="Times,serif" font-size="14.00" fill="#000000">pyfinder.clients.services.rrsm</text>
</g>
<!-- pyfinder.clients.services.rrsm&#45;&gt;pyfinder.clients.services.rrsm.shakemap_ws -->
<g id="edge23" class="edge">
<title>pyfinder.clients.services.rrsm-&gt;pyfinder.clients.services.rrsm.shakemap_ws</title>
<path fill="none" stroke="#000000" d="M930.2563,-324.1686C933.0981,-332.0383 936.4891,-341.4288 939.6373,-350.1467"/>
<polygon fill="#000000" stroke="#000000" points="943.0462,-359.5867 935.4172,-351.7096 941.3479,-354.884 939.6497,-350.1812 939.6497,-350.1812 939.6497,-350.1812 941.3479,-354.884 943.8821,-348.6528 943.0462,-359.5867 943.0462,-359.5867"/>
</g>
<!-- pyfinder.clients.services.rrsm.peakmotion_parser -->
<g id="node20" class="node">
<title>pyfinder.clients.services.rrsm.peakmotion_parser</title>
<polygon fill="none" stroke="#000000" points="799.704,-396 507.6868,-396 507.6868,-360 799.704,-360 799.704,-396"/>
<text text-anchor="middle" x="653.6954" y="-373.8" font-family="Times,serif" font-size="14.00" fill="#000000">pyfinder.clients.services.rrsm.peakmotion_parser</text>
</g>
<!-- pyfinder.clients.services.rrsm.peakmotion_ws&#45;&gt;pyfinder.clients.services.rrsm.peakmotion_parser -->
<g id="edge24" class="edge">
<title>pyfinder.clients.services.rrsm.peakmotion_ws-&gt;pyfinder.clients.services.rrsm.peakmotion_parser</title>
<path fill="none" stroke="#000000" d="M672.3868,-324.1686C669.6837,-331.9537 666.4638,-341.2271 663.4644,-349.8653"/>
<polygon fill="#000000" stroke="#000000" points="660.0889,-359.5867 659.118,-348.6639 661.729,-354.8634 663.3691,-350.14 663.3691,-350.14 663.3691,-350.14 661.729,-354.8634 667.6201,-351.6161 660.0889,-359.5867 660.0889,-359.5867"/>
</g>
<!-- pyfinder.clients.services.rrsm.peakmotion_ws&#45;&gt;pyfinder.clients.services.rrsm.shakemap_ws -->
<g id="edge25" class="edge">
<title>pyfinder.clients.services.rrsm.peakmotion_ws-&gt;pyfinder.clients.services.rrsm.shakemap_ws</title>
<path fill="none" stroke="#000000" d="M746.7303,-324.0757C784.7441,-334.1753 832.2688,-346.8018 871.7726,-357.2973"/>
<polygon fill="#000000" stroke="#000000" points="881.6325,-359.9169 870.8122,-361.6982 876.8001,-358.6329 871.9677,-357.349 871.9677,-357.349 871.9677,-357.349 876.8001,-358.6329 873.1233,-352.9999 881.6325,-359.9169 881.6325,-359.9169"/>
</g>
<!-- pyfinder.clients.services.rrsm.shakemap_parser -->
<g id="node22" class="node">
<title>pyfinder.clients.services.rrsm.shakemap_parser</title>
<polygon fill="none" stroke="#000000" points="1090.582,-468 808.8088,-468 808.8088,-432 1090.582,-432 1090.582,-468"/>
<text text-anchor="middle" x="949.6954" y="-445.8" font-family="Times,serif" font-size="14.00" fill="#000000">pyfinder.clients.services.rrsm.shakemap_parser</text>
</g>
<!-- pyfinder.clients.services.rrsm.shakemap_ws&#45;&gt;pyfinder.clients.services.rrsm.shakemap_parser -->
<g id="edge26" class="edge">
<title>pyfinder.clients.services.rrsm.shakemap_ws-&gt;pyfinder.clients.services.rrsm.shakemap_parser</title>
<path fill="none" stroke="#000000" d="M949.6954,-396.1686C949.6954,-403.869 949.6954,-413.0257 949.6954,-421.5834"/>
<polygon fill="#000000" stroke="#000000" points="949.6954,-431.5867 945.1955,-421.5867 949.6954,-426.5867 949.6955,-421.5867 949.6955,-421.5867 949.6955,-421.5867 949.6954,-426.5867 954.1955,-421.5868 949.6954,-431.5867 949.6954,-431.5867"/>
</g>
<!-- pyfinder.clients.services.shakemap_data -->
<g id="node24" class="node">
<title>pyfinder.clients.services.shakemap_data</title>
<polygon fill="none" stroke="#000000" points="1499.5504,-180 1257.8404,-180 1257.8404,-144 1499.5504,-144 1499.5504,-180"/>
<text text-anchor="middle" x="1378.6954" y="-157.8" font-family="Times,serif" font-size="14.00" fill="#000000">pyfinder.clients.services.shakemap_data</text>
</g>
<!-- pyfinder.clients.services.shakemap_data&#45;&gt;pyfinder.clients.services.basedatastructure -->
<g id="edge27" class="edge">
<title>pyfinder.clients.services.shakemap_data-&gt;pyfinder.clients.services.basedatastructure</title>
<path fill="none" stroke="#000000" d="M1378.6954,-180.1686C1378.6954,-187.869 1378.6954,-197.0257 1378.6954,-205.5834"/>
<polygon fill="#000000" stroke="#000000" points="1378.6954,-215.5867 1374.1955,-205.5867 1378.6954,-210.5867 1378.6955,-205.5867 1378.6955,-205.5867 1378.6955,-205.5867 1378.6954,-210.5867 1383.1955,-205.5868 1378.6954,-215.5867 1378.6954,-215.5867"/>
</g>
</g>
</svg>