<?xml version="1.0" encoding="us-ascii" standalone="no"?><svg xmlns="http://www.w3.org/2000/svg" xmlns:xlink="http://www.w3.org/1999/xlink" contentStyleType="text/css" height="514px" preserveAspectRatio="none" style="width:930px;height:514px;background:#F9F9F9;" version="1.1" viewBox="0 0 930 514" width="930px" zoomAndPan="magnify"><defs/><g><rect fill="#F9F9F9" height="514" style="stroke:none;stroke-width:1.0;" width="930" x="0" y="0"/><line style="stroke:#393939;stroke-width:0.5;stroke-dasharray:5.0,5.0;" x1="46" x2="46" y1="67.2969" y2="435.9219"/><line style="stroke:#393939;stroke-width:0.5;stroke-dasharray:5.0,5.0;" x1="208" x2="208" y1="67.2969" y2="435.9219"/><line style="stroke:#393939;stroke-width:0.5;stroke-dasharray:5.0,5.0;" x1="370.5" x2="370.5" y1="67.2969" y2="435.9219"/><line style="stroke:#393939;stroke-width:0.5;stroke-dasharray:5.0,5.0;" x1="545.5" x2="545.5" y1="225.9609" y2="435.9219"/><line style="stroke:#393939;stroke-width:0.5;stroke-dasharray:5.0,5.0;" x1="770" x2="770" y1="277.2422" y2="435.9219"/><line style="stroke:#393939;stroke-width:0.5;stroke-dasharray:5.0,5.0;" x1="881" x2="881" y1="67.2969" y2="435.9219"/><rect fill="#006400" height="30.2969" rx="3.5" ry="3.5" style="stroke:#191919;stroke-width:1.5;" width="83" x="5" y="36"/><text fill="#F9F9F9" font-family="sans-serif" font-size="14" lengthAdjust="spacing" textLength="69" x="12" y="55.9951">User class</text><rect fill="#006400" height="30.2969" rx="3.5" ry="3.5" style="stroke:#191919;stroke-width:1.5;" width="83" x="5" y="434.9219"/><text fill="#F9F9F9" font-family="sans-serif" font-size="14" lengthAdjust="spacing" textLength="69" x="12" y="454.917">User class</text><rect fill="#E55756" height="30.2969" rx="3.5" ry="3.5" style="stroke:#191919;stroke-width:1.5;" width="143" x="137" y="36"/><text fill="#F9F9F9" font-family="sans-serif" font-size="14" lengthAdjust="spacing" textLength="129" x="144" y="55.9951">WebServiceClient</text><rect fill="#E55756" height="30.2969" rx="3.5" ry="3.5" style="stroke:#191919;stroke-width:1.5;" width="143" x="137" y="434.9219"/><text fill="#F9F9F9" font-family="sans-serif" font-size="14" lengthAdjust="spacing" textLength="129" x="144" y="454.917">WebServiceClient</text><rect fill="#E55756" height="30.2969" rx="3.5" ry="3.5" style="stroke:#191919;stroke-width:1.5;" width="100" x="320.5" y="36"/><text fill="#F9F9F9" font-family="sans-serif" font-size="14" lengthAdjust="spacing" textLength="86" x="327.5" y="55.9951">WebService</text><rect fill="#E55756" height="30.2969" rx="3.5" ry="3.5" style="stroke:#191919;stroke-width:1.5;" width="100" x="320.5" y="434.9219"/><text fill="#F9F9F9" font-family="sans-serif" font-size="14" lengthAdjust="spacing" textLength="86" x="327.5" y="454.917">WebService</text><rect fill="#E55756" height="30.2969" rx="3.5" ry="3.5" style="stroke:#191919;stroke-width:1.5;" width="59" x="516.5" y="434.9219"/><text fill="#F9F9F9" font-family="sans-serif" font-size="14" lengthAdjust="spacing" textLength="45" x="523.5" y="454.917">Parser</text><text fill="#191919" font-family="sans-serif" font-size="14" lengthAdjust="spacing" textLength="102" x="716" y="447.917">DataStructure</text><ellipse cx="770" cy="467.2188" fill="#EFBABC" rx="12" ry="12" style="stroke:#191919;stroke-width:0.5;"/><polygon fill="#191919" points="766,455.2188,772,450.2188,770,455.2188,772,460.2188,766,455.2188" style="stroke:#191919;stroke-width:1.0;"/><text fill="#191919" font-family="sans-serif" font-size="14" lengthAdjust="spacing" textLength="89" x="834" y="63.9951">Data service</text><path d="M863.5,15 C863.5,5 881.5,5 881.5,5 C881.5,5 899.5,5 899.5,15 L899.5,41 C899.5,51 881.5,51 881.5,51 C881.5,51 863.5,51 863.5,41 L863.5,15 " fill="#A4DBD8" style="stroke:#191919;stroke-width:1.5;"/><path d="M863.5,15 C863.5,25 881.5,25 881.5,25 C881.5,25 899.5,25 899.5,15 " fill="none" style="stroke:#191919;stroke-width:1.5;"/><text fill="#191919" font-family="sans-serif" font-size="14" lengthAdjust="spacing" textLength="89" x="834" y="447.917">Data service</text><path d="M863.5,461.2188 C863.5,451.2188 881.5,451.2188 881.5,451.2188 C881.5,451.2188 899.5,451.2188 899.5,461.2188 L899.5,487.2188 C899.5,497.2188 881.5,497.2188 881.5,497.2188 C881.5,497.2188 863.5,497.2188 863.5,487.2188 L863.5,461.2188 " fill="#A4DBD8" style="stroke:#191919;stroke-width:1.5;"/><path d="M863.5,461.2188 C863.5,471.2188 881.5,471.2188 881.5,471.2188 C881.5,471.2188 899.5,471.2188 899.5,461.2188 " fill="none" style="stroke:#191919;stroke-width:1.5;"/><polygon fill="#191919" points="196.5,94.4297,206.5,98.4297,196.5,102.4297,200.5,98.4297" style="stroke:#191919;stroke-width:1.0;"/><line style="stroke:#191919;stroke-width:1.0;" x1="46.5" x2="202.5" y1="98.4297" y2="98.4297"/><text fill="#000000" font-family="sans-serif" font-size="13" lengthAdjust="spacing" textLength="127" x="53.5" y="93.3638">Request event data</text><polygon fill="#191919" points="358.5,123.5625,368.5,127.5625,358.5,131.5625,362.5,127.5625" style="stroke:#191919;stroke-width:1.0;"/><line style="stroke:#191919;stroke-width:1.0;" x1="208.5" x2="364.5" y1="127.5625" y2="127.5625"/><text fill="#000000" font-family="sans-serif" font-size="13" lengthAdjust="spacing" textLength="68" x="215.5" y="122.4966">Query URL</text><polygon fill="#191919" points="869.5,152.6953,879.5,156.6953,869.5,160.6953,873.5,156.6953" style="stroke:#191919;stroke-width:1.0;"/><line style="stroke:#191919;stroke-width:1.0;" x1="370.5" x2="875.5" y1="156.6953" y2="156.6953"/><text fill="#000000" font-family="sans-serif" font-size="13" lengthAdjust="spacing" textLength="85" x="377.5" y="151.6294">Send request</text><polygon fill="#191919" points="381.5,181.8281,371.5,185.8281,381.5,189.8281,377.5,185.8281" style="stroke:#191919;stroke-width:1.0;"/><line style="stroke:#191919;stroke-width:1.0;stroke-dasharray:2.0,2.0;" x1="375.5" x2="880.5" y1="185.8281" y2="185.8281"/><text fill="#000000" font-family="sans-serif" font-size="13" lengthAdjust="spacing" textLength="106" x="387.5" y="180.7622">Return response</text><polygon fill="#191919" points="504.5,226.0938,514.5,230.0938,504.5,234.0938,508.5,230.0938" style="stroke:#191919;stroke-width:1.0;"/><line style="stroke:#191919;stroke-width:1.0;" x1="370.5" x2="510.5" y1="230.0938" y2="230.0938"/><text fill="#000000" font-family="sans-serif" font-size="13" lengthAdjust="spacing" textLength="95" x="377.5" y="209.895">Send response</text><text fill="#000000" font-family="sans-serif" font-size="13" lengthAdjust="spacing" textLength="122" x="377.5" y="225.0278">content for parsing</text><rect fill="#E55756" height="30.2969" rx="3.5" ry="3.5" style="stroke:#191919;stroke-width:1.5;" width="59" x="516.5" y="196.7969"/><text fill="#F9F9F9" font-family="sans-serif" font-size="14" lengthAdjust="spacing" textLength="45" x="523.5" y="216.792">Parser</text><polygon fill="#191919" points="704,255.2266,714,259.2266,704,263.2266,708,259.2266" style="stroke:#191919;stroke-width:1.0;"/><line style="stroke:#191919;stroke-width:1.0;" x1="546" x2="710" y1="259.2266" y2="259.2266"/><text fill="#000000" font-family="sans-serif" font-size="13" lengthAdjust="spacing" textLength="146" x="553" y="254.1606">Initialize data structure</text><text fill="#191919" font-family="sans-serif" font-size="14" lengthAdjust="spacing" textLength="102" x="716" y="283.0889">DataStructure</text><ellipse cx="770" cy="254.0938" fill="#EFBABC" rx="12" ry="12" style="stroke:#191919;stroke-width:0.5;"/><polygon fill="#191919" points="766,242.0938,772,237.0938,770,242.0938,772,247.0938,766,242.0938" style="stroke:#191919;stroke-width:1.0;"/><line style="stroke:#191919;stroke-width:1.0;" x1="546" x2="588" y1="317.5234" y2="317.5234"/><line style="stroke:#191919;stroke-width:1.0;" x1="588" x2="588" y1="317.5234" y2="330.5234"/><line style="stroke:#191919;stroke-width:1.0;" x1="547" x2="588" y1="330.5234" y2="330.5234"/><polygon fill="#191919" points="557,326.5234,547,330.5234,557,334.5234,553,330.5234" style="stroke:#191919;stroke-width:1.0;"/><text fill="#000000" font-family="sans-serif" font-size="13" lengthAdjust="spacing" textLength="99" x="553" y="312.4575">Parse response</text><polygon fill="#191919" points="381.5,355.6563,371.5,359.6563,381.5,363.6563,377.5,359.6563" style="stroke:#191919;stroke-width:1.0;"/><line style="stroke:#191919;stroke-width:1.0;stroke-dasharray:2.0,2.0;" x1="375.5" x2="545" y1="359.6563" y2="359.6563"/><text fill="#000000" font-family="sans-serif" font-size="13" lengthAdjust="spacing" textLength="138" x="387.5" y="354.5903">Return data structure</text><line style="stroke:#393939;stroke-width:2.0;" x1="537" x2="555" y1="350.6563" y2="368.6563"/><line style="stroke:#393939;stroke-width:2.0;" x1="537" x2="555" y1="368.6563" y2="350.6563"/><polygon fill="#191919" points="219.5,384.7891,209.5,388.7891,219.5,392.7891,215.5,388.7891" style="stroke:#191919;stroke-width:1.0;"/><line style="stroke:#191919;stroke-width:1.0;stroke-dasharray:2.0,2.0;" x1="213.5" x2="369.5" y1="388.7891" y2="388.7891"/><text fill="#000000" font-family="sans-serif" font-size="13" lengthAdjust="spacing" textLength="138" x="225.5" y="383.7231">Return data structure</text><polygon fill="#191919" points="57.5,413.9219,47.5,417.9219,57.5,421.9219,53.5,417.9219" style="stroke:#191919;stroke-width:1.0;"/><line style="stroke:#191919;stroke-width:1.0;stroke-dasharray:2.0,2.0;" x1="51.5" x2="207.5" y1="417.9219" y2="417.9219"/><text fill="#000000" font-family="sans-serif" font-size="13" lengthAdjust="spacing" textLength="138" x="63.5" y="412.856">Return data structure</text><!--SRC=[TL2nJiCm4Dtz5KVOAaLYOChGXIv8392eOc5nxQDOfBQvSuBArtEN5DeYEjc-zzxvlNTLtd27iBF49bigmOLiOu5gpKZWUijSWMKOz7djBRrl2J6USvznqo6DmU5T7p2MIV79xXBhW9_3Zs81QOAoyRROZMM4QYKtu1ETPqZanStjZJ6JhNgfdpNGuiU0N017yG2wmiXyXXju6f3si6uVZ4nrw6NOOVH0iyx8vlf0Rh4C50NXd2AZIkfbXiNYLp83Bz6bMFIxrqGWUJZ4hJ6Eq1O4nIZre1cwGeEJfQWPLl8okLxgsS1z32NOFdpXP1huXwgKtC3KpD5B5fCd7lz8l2IXjDSEqReIHZMIvyp7elvJJbq9HJkzmFa6]--></g></svg>