<?xml version="1.0" encoding="us-ascii" standalone="no"?><svg xmlns="http://www.w3.org/2000/svg" xmlns:xlink="http://www.w3.org/1999/xlink" contentStyleType="text/css" height="588px" preserveAspectRatio="none" style="width:935px;height:588px;background:#F9F9F9;" version="1.1" viewBox="0 0 935 588" width="935px" zoomAndPan="magnify"><defs/><g><rect fill="#F9F9F9" height="588" style="stroke:none;stroke-width:1.0;" width="935" x="0" y="0"/><line style="stroke:#393939;stroke-width:0.5;stroke-dasharray:5.0,5.0;" x1="46" x2="46" y1="83.5938" y2="494.3516"/><line style="stroke:#393939;stroke-width:0.5;stroke-dasharray:5.0,5.0;" x1="208" x2="208" y1="83.5938" y2="494.3516"/><line style="stroke:#393939;stroke-width:0.5;stroke-dasharray:5.0,5.0;" x1="370.5" x2="370.5" y1="83.5938" y2="494.3516"/><line style="stroke:#393939;stroke-width:0.5;stroke-dasharray:5.0,5.0;" x1="545.5" x2="545.5" y1="284.3906" y2="494.3516"/><line style="stroke:#393939;stroke-width:0.5;stroke-dasharray:5.0,5.0;" x1="770" x2="770" y1="335.6719" y2="494.3516"/><line style="stroke:#393939;stroke-width:0.5;stroke-dasharray:5.0,5.0;" x1="884" x2="884" y1="83.5938" y2="494.3516"/><rect fill="#006400" height="30.2969" rx="3.5" ry="3.5" style="stroke:#191919;stroke-width:1.5;" width="83" x="5" y="52.2969"/><text fill="#F9F9F9" font-family="sans-serif" font-size="14" lengthAdjust="spacing" textLength="69" x="12" y="72.292">User class</text><rect fill="#006400" height="30.2969" rx="3.5" ry="3.5" style="stroke:#191919;stroke-width:1.5;" width="83" x="5" y="493.3516"/><text fill="#F9F9F9" font-family="sans-serif" font-size="14" lengthAdjust="spacing" textLength="69" x="12" y="513.3467">User class</text><rect fill="#E55756" height="30.2969" rx="3.5" ry="3.5" style="stroke:#191919;stroke-width:1.5;" width="143" x="137" y="52.2969"/><text fill="#F9F9F9" font-family="sans-serif" font-size="14" lengthAdjust="spacing" textLength="129" x="144" y="72.292">WebServiceClient</text><rect fill="#E55756" height="30.2969" rx="3.5" ry="3.5" style="stroke:#191919;stroke-width:1.5;" width="143" x="137" y="493.3516"/><text fill="#F9F9F9" font-family="sans-serif" font-size="14" lengthAdjust="spacing" textLength="129" x="144" y="513.3467">WebServiceClient</text><rect fill="#E55756" height="30.2969" rx="3.5" ry="3.5" style="stroke:#191919;stroke-width:1.5;" width="100" x="320.5" y="52.2969"/><text fill="#F9F9F9" font-family="sans-serif" font-size="14" lengthAdjust="spacing" textLength="86" x="327.5" y="72.292">WebService</text><rect fill="#E55756" height="30.2969" rx="3.5" ry="3.5" style="stroke:#191919;stroke-width:1.5;" width="100" x="320.5" y="493.3516"/><text fill="#F9F9F9" font-family="sans-serif" font-size="14" lengthAdjust="spacing" textLength="86" x="327.5" y="513.3467">WebService</text><rect fill="#E55756" height="30.2969" rx="3.5" ry="3.5" style="stroke:#191919;stroke-width:1.5;" width="59" x="516.5" y="493.3516"/><text fill="#F9F9F9" font-family="sans-serif" font-size="14" lengthAdjust="spacing" textLength="45" x="523.5" y="513.3467">Parser</text><text fill="#191919" font-family="sans-serif" font-size="14" lengthAdjust="spacing" textLength="102" x="716" y="506.3467">DataStructure</text><ellipse cx="770" cy="525.6484" fill="#EFBABC" rx="12" ry="12" style="stroke:#191919;stroke-width:0.5;"/><polygon fill="#191919" points="766,513.6484,772,508.6484,770,513.6484,772,518.6484,766,513.6484" style="stroke:#191919;stroke-width:1.0;"/><text fill="#191919" font-family="sans-serif" font-size="14" lengthAdjust="spacing" textLength="94" x="834" y="63.9951">Remote data</text><text fill="#191919" font-family="sans-serif" font-size="14" lengthAdjust="spacing" textLength="51" x="855.5" y="80.292">service</text><path d="M866,15 C866,5 884,5 884,5 C884,5 902,5 902,15 L902,41 C902,51 884,51 884,51 C884,51 866,51 866,41 L866,15 " fill="#A4DBD8" style="stroke:#191919;stroke-width:1.5;"/><path d="M866,15 C866,25 884,25 884,25 C884,25 902,25 902,15 " fill="none" style="stroke:#191919;stroke-width:1.5;"/><text fill="#191919" font-family="sans-serif" font-size="14" lengthAdjust="spacing" textLength="94" x="834" y="506.3467">Remote data</text><text fill="#191919" font-family="sans-serif" font-size="14" lengthAdjust="spacing" textLength="51" x="855.5" y="522.6436">service</text><path d="M866,535.9453 C866,525.9453 884,525.9453 884,525.9453 C884,525.9453 902,525.9453 902,535.9453 L902,561.9453 C902,571.9453 884,571.9453 884,571.9453 C884,571.9453 866,571.9453 866,561.9453 L866,535.9453 " fill="#A4DBD8" style="stroke:#191919;stroke-width:1.5;"/><path d="M866,535.9453 C866,545.9453 884,545.9453 884,545.9453 C884,545.9453 902,545.9453 902,535.9453 " fill="none" style="stroke:#191919;stroke-width:1.5;"/><polygon fill="#191919" points="196.5,110.7266,206.5,114.7266,196.5,118.7266,200.5,114.7266" style="stroke:#191919;stroke-width:1.0;"/><line style="stroke:#191919;stroke-width:1.0;" x1="46.5" x2="202.5" y1="114.7266" y2="114.7266"/><text fill="#000000" font-family="sans-serif" font-size="13" lengthAdjust="spacing" textLength="127" x="53.5" y="109.6606">Request event data</text><polygon fill="#191919" points="358.5,139.8594,368.5,143.8594,358.5,147.8594,362.5,143.8594" style="stroke:#191919;stroke-width:1.0;"/><line style="stroke:#191919;stroke-width:1.0;" x1="208.5" x2="364.5" y1="143.8594" y2="143.8594"/><text fill="#000000" font-family="sans-serif" font-size="13" lengthAdjust="spacing" textLength="68" x="215.5" y="138.7935">Query URL</text><line style="stroke:#191919;stroke-width:1.0;" x1="370.5" x2="412.5" y1="172.9922" y2="172.9922"/><line style="stroke:#191919;stroke-width:1.0;" x1="412.5" x2="412.5" y1="172.9922" y2="185.9922"/><line style="stroke:#191919;stroke-width:1.0;" x1="371.5" x2="412.5" y1="185.9922" y2="185.9922"/><polygon fill="#191919" points="381.5,181.9922,371.5,185.9922,381.5,189.9922,377.5,185.9922" style="stroke:#191919;stroke-width:1.0;"/><text fill="#000000" font-family="sans-serif" font-size="13" lengthAdjust="spacing" textLength="105" x="377.5" y="167.9263">Validate request</text><polygon fill="#191919" points="872,211.125,882,215.125,872,219.125,876,215.125" style="stroke:#191919;stroke-width:1.0;"/><line style="stroke:#191919;stroke-width:1.0;" x1="370.5" x2="878" y1="215.125" y2="215.125"/><text fill="#000000" font-family="sans-serif" font-size="13" lengthAdjust="spacing" textLength="85" x="377.5" y="210.0591">Send request</text><polygon fill="#191919" points="381.5,240.2578,371.5,244.2578,381.5,248.2578,377.5,244.2578" style="stroke:#191919;stroke-width:1.0;"/><line style="stroke:#191919;stroke-width:1.0;stroke-dasharray:2.0,2.0;" x1="375.5" x2="883" y1="244.2578" y2="244.2578"/><text fill="#000000" font-family="sans-serif" font-size="13" lengthAdjust="spacing" textLength="106" x="387.5" y="239.1919">Return response</text><polygon fill="#191919" points="504.5,284.5234,514.5,288.5234,504.5,292.5234,508.5,288.5234" style="stroke:#191919;stroke-width:1.0;"/><line style="stroke:#191919;stroke-width:1.0;" x1="370.5" x2="510.5" y1="288.5234" y2="288.5234"/><text fill="#000000" font-family="sans-serif" font-size="13" lengthAdjust="spacing" textLength="95" x="377.5" y="268.3247">Send response</text><text fill="#000000" font-family="sans-serif" font-size="13" lengthAdjust="spacing" textLength="122" x="377.5" y="283.4575">content for parsing</text><rect fill="#E55756" height="30.2969" rx="3.5" ry="3.5" style="stroke:#191919;stroke-width:1.5;" width="59" x="516.5" y="255.2266"/><text fill="#F9F9F9" font-family="sans-serif" font-size="14" lengthAdjust="spacing" textLength="45" x="523.5" y="275.2217">Parser</text><polygon fill="#191919" points="704,313.6563,714,317.6563,704,321.6563,708,317.6563" style="stroke:#191919;stroke-width:1.0;"/><line style="stroke:#191919;stroke-width:1.0;" x1="546" x2="710" y1="317.6563" y2="317.6563"/><text fill="#000000" font-family="sans-serif" font-size="13" lengthAdjust="spacing" textLength="146" x="553" y="312.5903">Initialize data structure</text><text fill="#191919" font-family="sans-serif" font-size="14" lengthAdjust="spacing" textLength="102" x="716" y="341.5186">DataStructure</text><ellipse cx="770" cy="312.5234" fill="#EFBABC" rx="12" ry="12" style="stroke:#191919;stroke-width:0.5;"/><polygon fill="#191919" points="766,300.5234,772,295.5234,770,300.5234,772,305.5234,766,300.5234" style="stroke:#191919;stroke-width:1.0;"/><line style="stroke:#191919;stroke-width:1.0;" x1="546" x2="588" y1="375.9531" y2="375.9531"/><line style="stroke:#191919;stroke-width:1.0;" x1="588" x2="588" y1="375.9531" y2="388.9531"/><line style="stroke:#191919;stroke-width:1.0;" x1="547" x2="588" y1="388.9531" y2="388.9531"/><polygon fill="#191919" points="557,384.9531,547,388.9531,557,392.9531,553,388.9531" style="stroke:#191919;stroke-width:1.0;"/><text fill="#000000" font-family="sans-serif" font-size="13" lengthAdjust="spacing" textLength="99" x="553" y="370.8872">Parse response</text><polygon fill="#191919" points="381.5,414.0859,371.5,418.0859,381.5,422.0859,377.5,418.0859" style="stroke:#191919;stroke-width:1.0;"/><line style="stroke:#191919;stroke-width:1.0;stroke-dasharray:2.0,2.0;" x1="375.5" x2="545" y1="418.0859" y2="418.0859"/><text fill="#000000" font-family="sans-serif" font-size="13" lengthAdjust="spacing" textLength="138" x="387.5" y="413.02">Return data structure</text><line style="stroke:#393939;stroke-width:2.0;" x1="537" x2="555" y1="409.0859" y2="427.0859"/><line style="stroke:#393939;stroke-width:2.0;" x1="537" x2="555" y1="427.0859" y2="409.0859"/><polygon fill="#191919" points="219.5,443.2188,209.5,447.2188,219.5,451.2188,215.5,447.2188" style="stroke:#191919;stroke-width:1.0;"/><line style="stroke:#191919;stroke-width:1.0;stroke-dasharray:2.0,2.0;" x1="213.5" x2="369.5" y1="447.2188" y2="447.2188"/><text fill="#000000" font-family="sans-serif" font-size="13" lengthAdjust="spacing" textLength="138" x="225.5" y="442.1528">Return data structure</text><polygon fill="#191919" points="57.5,472.3516,47.5,476.3516,57.5,480.3516,53.5,476.3516" style="stroke:#191919;stroke-width:1.0;"/><line style="stroke:#191919;stroke-width:1.0;stroke-dasharray:2.0,2.0;" x1="51.5" x2="207.5" y1="476.3516" y2="476.3516"/><text fill="#000000" font-family="sans-serif" font-size="13" lengthAdjust="spacing" textLength="138" x="63.5" y="471.2856">Return data structure</text><!--SRC=[TL2nJaCn3Dpp5QPibPx4mFI6BdH1Oe1N5POkQM9An6iIxBoYylNOUQMbY4vHV7VstLsLDzmYR2snoPPAS27RM62oP2HmlMMUW6KOz7ljBRrl236USrzmlK3Q1OTtVS1OgkAJtINM0J-77yK2KeMoyRROjMM4IOVRL11qi8hyI-yP4dbnTNjZJBNNpFHe2nr-3CW5S2TUgjB8V8HRU1gGzh3i7enCcvcEdcqVX8P0er80PNk15XZzSMpaPdDOqs4PA0h4EOclSLc6wVIe6O5LT2aMDVAQ22GnXxWnnX7gGSKezJ0Nauj2WvEbgEdcyZEvcUdRmdqC9OZ9hx48u1-gKKvkePPtCfERCTZ1v1-DbooKzbepMbV2JfraKrEVElnFMMiKYjPzWVCD]--></g></svg>